<?xml version="1.0" encoding="UTF-8"?>
<svg width="108px" height="111px" viewBox="0 0 108 111" version="1.1" xmlns="http://www.w3.org/2000/svg" xmlns:xlink="http://www.w3.org/1999/xlink">
    <!-- Generator: Sketch 46.2 (44496) - http://www.bohemiancoding.com/sketch -->
    <title>illustration/print3</title>
    <desc>Created with Sketch.</desc>
    <defs></defs>
    <g id="Symbols" stroke="none" stroke-width="1" fill="none" fill-rule="evenodd">
        <g id="illustration/print3" fill-rule="nonzero">
            <g id="Asset-45" transform="translate(8.000000, 3.000000)">
                <rect id="Rectangle-path" fill="#4EBF1A" x="0" y="50" width="93" height="55" rx="2"></rect>
                <polygon id="Shape" stroke="#4EBF1A" stroke-width="2" fill="#FFFFFF" stroke-linecap="round" stroke-linejoin="round" points="74.1861103 0 71.3627779 3.72597859 68.5488882 0 65.7255559 3.72597859 62.9116662 0 60.0883338 3.72597859 57.2744441 0 54.4605544 3.72597859 51.6372221 0 48.8233323 3.72597859 46 0 43.1861103 3.72597859 40.3627779 0 37.5488882 3.72597859 34.7349985 0 31.9116662 3.72597859 29.0977764 0 26.2744441 3.72597859 23.4605544 0 20.6372221 3.72597859 17.8233323 0 15 3.72597859 15 86.2973107 77 86.2973107 77 3.72597859"></polygon>
                <rect id="Rectangle-path" fill="#185433" transform="translate(46.500000, 85.000000) rotate(180.000000) translate(-46.500000, -85.000000) " x="7" y="83" width="79" height="4" rx="1.93"></rect>
            </g>
        </g>
    </g>
</svg>