<?xml version="1.0" encoding="UTF-8"?>
<svg width="108px" height="91px" viewBox="0 0 108 91" version="1.1" xmlns="http://www.w3.org/2000/svg" xmlns:xlink="http://www.w3.org/1999/xlink">
    <!-- Generator: Sketch 46.2 (44496) - http://www.bohemiancoding.com/sketch -->
    <title>Group</title>
    <desc>Created with Sketch.</desc>
    <defs>
        <polygon id="path-1" points="9.62942719e-21 0.324781579 9.62942719e-21 54 53.4195 54 53.4195 0.324781579 0 0.324781579"></polygon>
    </defs>
    <g id="Symbols" stroke="none" stroke-width="1" fill="none" fill-rule="evenodd">
        <g id="illustration/print1-copy" transform="translate(0.000000, -9.000000)">
            <g id="Group" transform="translate(0.000000, 9.000000)">
                <g id="Asset-45" transform="translate(0.000000, 43.000000)" fill-rule="nonzero">
                    <rect id="Rectangle-path" fill="#4EBF1A" x="0" y="0" width="81" height="48" rx="2"></rect>
                    <polygon id="Shape" stroke="#4EBF1A" stroke-width="2" fill="#FFFFFF" stroke-linecap="round" stroke-linejoin="round" points="65.217338 18.9767442 62.7414639 22.3291962 60.2738704 18.9767442 57.7979963 22.3291962 55.3304028 18.9767442 52.8545287 22.3291962 50.3869352 18.9767442 47.9193416 22.3291962 45.4434676 18.9767442 42.9758741 22.3291962 40.5 18.9767442 38.0324065 22.3291962 35.5565324 18.9767442 33.0889389 22.3291962 30.6213453 18.9767442 28.1454713 22.3291962 25.6778777 18.9767442 23.2020037 22.3291962 20.7344101 18.9767442 18.2585361 22.3291962 15.7909425 18.9767442 13.3150685 22.3291962 13.3150685 31.1283665 67.6849315 31.1283665 67.6849315 22.3291962"></polygon>
                    <rect id="Rectangle-path" fill="#185433" transform="translate(39.945205, 30.697674) rotate(180.000000) translate(-39.945205, -30.697674) " x="5.54794521" y="29.0232558" width="68.7945205" height="3.34883721" rx="1.6744186"></rect>
                </g>
                <g id="Page-1" transform="translate(54.000000, 0.000000)">
                    <g id="Group-3">
                        <mask id="mask-2" fill="white">
                            <use xlink:href="#path-1"></use>
                        </mask>
                        <g id="Clip-2"></g>
                        <path d="M51.4632079,0.324781579 L1.95657632,0.324781579 C0.850997368,0.324781579 -0.000213157895,1.17528158 -0.000213157895,2.28157105 L-0.000213157895,52.0432816 C-0.000213157895,53.1495711 0.850997368,54.0000711 1.95657632,54.0000711 L51.4632079,54.0000711 C52.5694974,54.0000711 53.4199974,53.1495711 53.4199974,52.0432816 L53.4199974,2.36612368 C53.4199974,1.26054474 52.5694974,0.324781579 51.4632079,0.324781579" id="Fill-1" fill="#EAC81B" mask="url(#mask-2)"></path>
                    </g>
                    <path d="M26.4489796,36.3673469 C25.2315918,36.3673469 24.244898,35.4225144 24.244898,34.2567754 L24.244898,12.0289389 C24.244898,10.8631999 25.2315918,9.91836735 26.4489796,9.91836735 C27.6663673,9.91836735 28.6530612,10.8631999 28.6530612,12.0289389 L28.6530612,34.2567754 C28.6530612,35.4225144 27.6663673,36.3673469 26.4489796,36.3673469" id="Fill-4" fill="#FFFFFF"></path>
                    <path d="M24.244898,41.877917 C24.244898,40.6607867 25.2323792,39.6734694 26.4497116,39.6734694 C27.667044,39.6734694 28.6530612,40.6607867 28.6530612,41.877917 C28.6530612,43.0950472 27.667044,44.0816327 26.4497116,44.0816327 C25.2323792,44.0816327 24.244898,43.0950472 24.244898,41.877917" id="Fill-6" fill="#FFFFFF"></path>
                </g>
            </g>
        </g>
    </g>
</svg>