<?xml version="1.0" encoding="utf-8"?>
<!-- Generator: Adobe Illustrator 21.1.0, SVG Export Plug-In . SVG Version: 6.00 Build 0)  -->
<svg version="1.1"  xmlns="http://www.w3.org/2000/svg" xmlns:xlink="http://www.w3.org/1999/xlink" x="0px" y="0px" width="140px" height="66px"
	 viewBox="0 0 79.2 22.9" style="enable-background:new 0 0 79.2 22.9;" xml:space="preserve">
<path d="M0.8,20.7C0.3,20.4,0,19.9,0,19.3c0-0.9,0.7-1.6,1.6-1.6c0,0,0,0,0,0c0.3,0,0.6,0.1,0.9,0.2c1.5,1,3.2,1.6,5,1.7
	c1.7,0,2.7-0.7,2.7-1.9v-0.1c0-1.4-1.9-1.8-3.9-2.4c-2.6-0.7-5.5-1.8-5.5-5.1V10c0-3.3,2.7-5.3,6.2-5.3c1.9,0,3.8,0.5,5.5,1.4
	c0.6,0.3,1,0.9,1,1.5c0,0.9-0.7,1.6-1.6,1.6c0,0,0,0-0.1,0c-0.3,0-0.6-0.1-0.8-0.2C9.9,8.3,8.4,7.9,7,7.9c-1.6,0-2.5,0.7-2.5,1.7
	v0.1c0,1.3,1.9,1.8,3.9,2.5c2.6,0.8,5.4,2,5.4,5.1v0.1c0,3.7-2.9,5.5-6.5,5.5C5.1,22.8,2.7,22,0.8,20.7 M24.9,13.8L24.9,13.8
	c0.1-5.2,4.4-9.3,9.5-9.2c5,0.1,9,4.1,9.1,9.1v0.1c0,5-4.1,9.1-9.2,9.1c-0.1,0-0.1,0-0.2,0C29.2,23,25,19,24.9,14
	C24.9,14,24.9,13.9,24.9,13.8 M39.6,13.8L39.6,13.8c0.1-3-2.2-5.6-5.2-5.7c-0.1,0-0.1,0-0.2,0c-2.9,0-5.3,2.3-5.3,5.2
	c0,0.1,0,0.2,0,0.3v0.1c-0.1,3,2.2,5.5,5.2,5.6c0.1,0,0.1,0,0.2,0c2.9,0,5.3-2.3,5.3-5.2C39.6,14,39.6,13.9,39.6,13.8 M49.2,20.6
	v-8.4c0-2,1.4-3.7,3.4-3.9c2.1-0.2,4,1.3,4.3,3.4c0,0.1,0,0.3,0,0.4v8.5c0,1.1,0.9,2,2,2s2-0.9,2-2v-8.1c0-4.3-3.5-7.8-7.9-7.8
	c-4.3,0-7.9,3.5-7.9,7.8c0,0,0,0,0,0v8.1c0,1.1,0.9,2,2,2S49.2,21.7,49.2,20.6"/>
<path d="M23.2,8.6c1,0,1.8-0.8,1.8-1.8c0,0,0,0,0,0c0-1-0.8-1.8-1.8-1.8c0,0,0,0,0,0h-3.1V2c0-1.1-0.9-2-2-2s-2,0.9-2,2v14.7h0
	c0.1,3.3,2.7,5.9,6,6.1c0.1,0,0.2,0,0.3,0h0.8c1,0,1.9-0.8,1.9-1.9s-0.8-1.9-1.9-1.9l0,0h-0.5c-1.4,0-2.5-1.1-2.5-2.5v-8L23.2,8.6
	L23.2,8.6z M69.2,13.4c0,1,0.8,1.7,1.7,1.7c0,0,0,0,0,0h6.5c1,0,1.7-0.8,1.7-1.7c0-5-3.3-8.8-8-8.8c-4.9-0.1-8.9,3.8-8.9,8.7
	c0,0.1,0,0.3,0,0.4v0.1c0,5,3.9,9,8.9,9c0.1,0,0.2,0,0.2,0c2.1,0,4.2-0.7,5.8-2c0.8-0.6,0.9-1.8,0.2-2.6c-0.6-0.8-1.8-0.9-2.6-0.2
	c-0.9,0.8-2.2,1.3-3.4,1.2c-3-0.1-5.3-2.5-5.3-5.4c0-0.1,0-0.1,0-0.2v-0.1c0-3,1.7-5.6,4.9-5.6c2.1,0,3.6,1.5,4.1,3.6h-4.4
	C69.9,11.7,69.2,12.5,69.2,13.4C69.2,13.4,69.2,13.4,69.2,13.4"/>
</svg>
